<svg width="27" height="22" viewBox="0 0 27 22" fill="none" xmlns="http://www.w3.org/2000/svg">
<path d="M0.748507 5.53016C0.748507 2.76874 2.98708 0.530159 5.74851 0.530159H20.7485C23.5099 0.530159 25.7485 2.76874 25.7485 5.53016V15.5302C25.7485 18.2916 23.5099 20.5302 20.7485 20.5302H5.74851C2.98708 20.5302 0.748507 18.2916 0.748507 15.5302V5.53016Z" fill="url(#paint0_linear_1_43)"/>
<path d="M5.03639 0.979356C4.62328 1.06288 4.10203 1.23524 3.7284 1.41952C3.61117 1.47682 3.65846 1.4242 3.5773 1.46435C3.41867 1.54435 3.28625 1.6444 3.13858 1.73795C3.08948 1.76913 3.12569 1.69413 3.07442 1.72785C2.7936 1.91453 2.56333 2.13884 2.3318 2.38775C1.54158 3.23441 1.09814 4.37282 1.10433 5.53016C1.10526 6.09023 1.10626 6.6529 1.10627 7.22067C1.10684 7.82337 1.06475 8.55604 1.09384 9.17858C1.09735 9.25125 1.14692 9.20792 1.15121 9.22175C1.21742 9.43861 1.11513 9.36651 1.10313 9.50811C1.05588 10.0701 1.05555 10.695 1.08129 11.2359C1.09239 11.466 1.19614 11.2353 1.13909 11.4669C1.1352 11.483 1.07778 11.4247 1.0723 11.4878C1.05991 11.6309 1.07248 11.9024 1.06889 12.0133C1.06161 12.227 1.06244 12.2624 1.06346 12.4645C1.06443 12.7409 1.03747 13.0696 1.05314 13.3662C1.05671 13.4295 1.11731 13.3457 1.12868 13.4466C1.14007 13.5476 1.13743 13.8149 1.12357 13.905C1.10973 13.9952 1.06049 13.9568 1.04942 13.9727C0.955502 14.1039 1.08903 14.4131 1.09292 14.4529C1.1252 14.8325 1.12163 15.1839 1.11092 15.5302C1.10138 15.823 1.11226 16.115 1.17124 16.4118C1.26398 16.8859 1.47218 17.3614 1.69255 17.7582C1.9552 18.2305 2.22125 18.6191 2.61846 18.9717C2.66048 19.0083 2.66676 18.9044 2.71776 18.9482C3.26168 19.4103 3.88803 19.752 4.56485 19.9864C4.63326 20.0099 4.524 20.0591 4.59202 20.0868C4.90653 20.2187 5.40873 20.3772 5.74851 20.2683C5.85816 20.2361 5.95137 20.1844 6.01826 20.1057C6.34077 20.117 6.7323 20.1285 7.02082 20.1949C7.20685 20.2377 7.02617 20.3222 7.25469 20.2858C7.30623 20.2776 7.2392 20.2042 7.3165 20.1975C7.64191 20.1693 7.99744 20.1921 8.31937 20.1526C8.38485 20.1443 8.36697 20.0777 8.38552 20.0656C8.54145 19.9674 8.80102 20.1273 8.85761 20.139C9.2885 20.2251 9.60318 20.1899 10.0046 20.1908C10.0977 20.191 9.98763 20.1004 10.0773 20.0973C10.5421 20.0826 11.0237 20.0886 11.4789 20.1281C11.5802 20.1372 11.4871 20.2158 11.5354 20.2242C11.7488 20.2601 11.7961 20.1116 12.0007 20.1431C12.0438 20.1496 12.0195 20.217 12.0274 20.2244C12.1506 20.3404 12.2576 20.1755 12.2892 20.1717C12.6899 20.1209 12.946 20.293 13.3331 20.268C13.3794 20.2649 13.275 20.1791 13.4052 20.1754C14.2724 20.1499 15.1895 20.1718 16.0479 20.2405C16.1814 20.2511 16.0861 20.3166 16.0945 20.3246C16.2314 20.4505 16.3199 20.2816 16.3635 20.2752C16.7068 20.2291 17.0275 20.3708 17.2607 20.1689C18.4274 20.2241 19.5898 20.1616 20.7485 20.2286C20.7485 20.2286 20.7485 20.2286 20.7485 20.2286C21.0174 20.2451 21.288 20.247 21.5621 20.2364C21.5799 20.2355 21.5628 20.3235 21.5985 20.3211C22.0282 20.2842 21.924 20.168 22.1369 19.9409C22.1881 19.8845 22.4482 19.9951 22.4729 19.9995C22.5564 20.0227 22.5344 20.1648 22.56 20.1657C22.7748 20.1634 22.5865 19.7988 22.8088 19.6921C22.8162 19.6892 22.82 19.7718 22.8424 19.7691C22.9126 19.7607 22.957 19.7037 23.0265 19.6954C23.1842 19.6762 23.3403 19.8189 23.4742 19.5912C23.4894 19.5617 23.326 19.3955 23.5125 19.2742C23.5898 19.2283 23.8904 18.9724 23.9781 18.903C24.0683 18.8367 24.066 18.9431 24.0738 18.9402C24.3602 18.793 24.3075 18.9028 24.5242 18.8835C24.7417 18.8566 24.4471 18.6637 24.4575 18.5911C24.4683 18.5196 24.6697 18.3911 24.725 18.3599C24.7808 18.3303 24.7787 18.4155 24.8211 18.3833C25.0983 18.1611 24.7597 18.1658 24.7719 18.0464C24.7908 17.7697 25.1057 17.7234 25.2276 17.5134C25.2595 17.4575 25.1852 17.4818 25.2025 17.4278C25.2687 17.2161 25.3917 17.1135 25.3927 16.8487C25.3938 16.8034 25.2952 16.5751 25.4299 16.4707C25.4495 16.4555 25.5018 16.5206 25.5338 16.4296C25.5826 16.2936 25.6303 16.0367 25.6186 15.8817C25.6103 15.7674 25.4985 15.8901 25.5385 15.7513C25.5557 15.6893 25.612 15.8088 25.6387 15.6906C25.647 15.6526 25.653 15.595 25.6558 15.5302C25.6618 15.3918 25.6602 15.2228 25.6589 15.1425C25.6568 15.0243 25.5779 15.089 25.5726 15.0794C25.5422 15.0216 25.5046 14.7948 25.5047 14.7747C25.4972 13.7637 25.6296 12.8313 25.5876 11.8469C25.5845 11.7696 25.5033 11.8211 25.502 11.8093C25.4687 11.5448 25.6836 11.7533 25.7557 11.5686C25.5915 11.5953 25.6214 11.4862 25.6037 11.2999C25.595 11.2102 25.5316 11.2591 25.5251 11.2509C25.4292 11.1177 25.5537 11.025 25.579 11.0012C25.6724 10.913 25.5624 10.817 25.6247 10.757C25.6865 10.6971 25.7781 10.8351 25.7768 10.6564C25.7187 10.6063 25.5663 10.739 25.5419 10.6033C25.4501 10.0915 25.5714 9.13611 25.5839 8.72459C25.5968 8.31389 25.5866 8.18124 25.6075 7.94192C25.645 7.50963 25.5355 7.66806 25.4867 7.39964C25.438 7.13044 25.7043 7.2613 25.7617 7.22261C25.819 7.18463 25.76 7.14314 25.7915 7.09589C25.8229 7.04879 25.8619 7.15076 25.8736 7.03999C25.8851 6.92915 25.7833 6.62613 25.724 6.58685C25.5982 6.50379 25.4658 6.64034 25.5132 6.34708C25.516 6.33021 25.5851 6.38495 25.5923 6.32037C25.6199 6.06033 25.6344 5.79517 25.6482 5.53016C25.6617 5.27682 25.655 5.02302 25.6397 4.7728C25.6352 4.70259 25.7193 4.75281 25.7173 4.71137C25.6861 4.27949 25.5873 4.45285 25.3986 4.26809C25.5897 4.27089 25.6756 4.11386 25.5649 3.79841C25.4959 3.61103 25.4319 3.67238 25.3318 3.57832C25.302 3.55043 25.2952 3.40229 25.25 3.39593C25.103 3.37651 25.0397 3.54703 24.9408 3.23984C24.9363 3.22616 25.0167 3.23372 24.9967 3.18864C24.8616 2.89864 24.7336 2.93266 24.5257 2.67161C24.3638 2.46707 24.1013 2.06803 23.8728 1.86234C24.0087 1.7162 23.7444 1.55903 23.57 1.60272C23.4125 1.48136 23.2277 1.37349 23.0679 1.26499C23.0127 1.2278 23.0773 1.19933 23.0729 1.19002C23.0019 1.04448 22.8629 1.12171 22.823 1.10817C22.3834 0.955886 22.0398 0.749666 21.5828 0.760377C21.5663 0.761139 21.5213 0.882974 21.4198 0.772713C21.4126 0.765352 21.5669 0.72766 21.3599 0.694361C21.2149 0.671893 20.9809 0.617058 20.7485 0.617006C20.6469 0.616646 20.5469 0.622602 20.4566 0.639907C20.3843 0.653903 20.2013 0.754198 20.0544 0.674636C20.0348 0.663872 20.0563 0.628322 20.028 0.608448C19.9367 0.545323 19.8869 0.670128 19.7795 0.56398C19.6722 0.457786 19.449 0.380568 19.1475 0.453279C19.1379 0.455432 19.0665 0.552408 18.9717 0.550735C18.8204 0.548085 18.6055 0.528093 18.4475 0.52876C18.3718 0.529094 18.4202 0.588037 18.4071 0.589112C17.8983 0.620942 17.5362 0.567897 16.9911 0.546063C16.8912 0.542182 16.6041 0.617582 16.4107 0.557509C16.1983 0.492404 16.4165 0.221276 15.9283 0.289642C15.7314 0.31814 15.4821 0.651261 15.1283 0.479702C14.442 0.521879 13.8073 0.439805 13.1191 0.497737C13.0882 0.500341 12.9903 0.584639 12.9175 0.583202C12.8095 0.581045 12.7502 0.542005 12.6731 0.539456C12.3499 0.527859 12.0542 0.560239 11.7426 0.554712C11.6243 0.552771 11.6657 0.514538 11.5246 0.512548C11.3836 0.510724 11.2895 0.560116 11.0985 0.536205C10.9541 0.5179 10.8099 0.419275 10.6183 0.409364C10.611 0.505835 10.4794 0.504162 10.2456 0.529216C10.2006 0.534043 10.2488 0.566931 10.2276 0.570887C10.1411 0.587552 10.061 0.560323 9.97881 0.578363C9.95882 0.58268 9.95788 0.61444 9.94154 0.619711C9.80259 0.665433 9.57368 0.593386 9.53436 0.581443C9.38368 0.535089 9.31327 0.575125 9.19769 0.556953C9.08231 0.539075 9.25483 0.516835 9.12005 0.506176C8.84066 0.484411 8.48168 0.490476 8.19793 0.489789C8.08471 0.489737 8.16195 0.527574 8.14575 0.528454C7.91164 0.537734 7.67489 0.499034 7.54508 0.57172C7.38276 0.384098 7.40391 0.589821 7.06927 0.551568C7.04291 0.548475 7.00938 0.462914 7.11058 0.449633C7.21177 0.436243 7.36523 0.462797 7.50564 0.441788C7.53889 0.437102 7.72936 0.351407 7.75535 0.345683C7.95891 0.30256 7.98776 0.439037 7.99853 0.446642C8.12066 0.527725 8.35342 0.433629 8.41471 0.426133C8.69512 0.393869 8.93335 0.412137 9.16788 0.387909C9.32127 0.372172 9.33627 0.274293 9.45672 0.275433C9.85711 0.278428 9.99687 0.420287 10.3742 0.291751C10.4551 0.264146 10.3747 0.151376 10.6646 0.236456C10.6828 0.241565 10.898 0.322205 11.0224 0.267688C11.038 0.260775 11.0375 0.226688 11.0581 0.223498C11.1961 0.202706 11.2882 0.22867 11.4385 0.213162C11.5889 0.197612 11.7697 0.174393 11.9414 0.183604C12.0448 0.189002 12.1776 0.254039 12.2271 0.270029C12.367 0.316104 12.5169 0.235806 12.6035 0.293108C12.6909 0.351269 12.5201 0.441267 12.7492 0.478726C12.7577 0.382641 12.7772 0.283797 12.7908 0.186772C13.2929 0.182258 13.7869 0.207631 14.2906 0.196668C14.3531 0.195161 14.2892 0.140902 14.3562 0.137738C14.6386 0.124367 14.8853 0.160783 15.1783 0.14053C15.405 0.124633 15.6536 0.0595051 15.8907 0.0395911C16.0356 0.161785 16.3874 0.114933 16.643 0.122775C16.7325 0.125575 16.7265 0.159907 16.7902 0.170334C17.0304 0.209047 16.9178 0.0963229 16.9837 0.0773963C17.2662 -0.00422712 17.2904 0.256089 17.6235 0.24716C17.6411 0.246975 17.8568 0.103236 17.8865 0.0937434C18.0753 0.0334001 17.9178 0.142786 18.0359 0.1519C18.2516 0.168551 18.4015 0.201759 18.6546 0.156526C18.7284 0.143295 18.9054 0.0497261 19.0487 0.118691C19.0676 0.127749 19.0572 0.176475 19.0724 0.179167C19.347 0.224145 19.3542 0.0704739 19.5112 0.0157411C19.6682 -0.0391595 19.9107 0.0647506 19.96 0.0955797C20.0891 0.17481 19.8611 0.13108 19.8541 0.139072C19.772 0.233683 19.9488 0.215939 20.0839 0.222798C20.1035 0.376665 20.2924 0.366722 20.224 0.229323C20.2162 0.21435 20.1111 0.229624 20.0839 0.222798C20.2025 0.0708061 20.4102 0.0473362 20.6396 0.188542C20.7055 0.229257 20.6926 0.274937 20.7485 0.296948C20.7854 0.310964 20.8504 0.314966 20.9816 0.308603C21.1368 0.302754 21.0838 0.190785 21.2261 0.171053C21.5558 0.126393 21.9544 0.30132 22.2727 0.378606C22.3896 0.406569 22.295 0.31479 22.3762 0.332497C22.5936 0.381195 22.7595 0.491629 22.9717 0.557938C22.9911 0.564011 22.9724 0.484632 23.0366 0.511999C23.5232 0.722632 23.8974 1.00301 24.3179 1.35449C24.5232 1.52162 24.8874 1.83476 25.0549 2.05748C25.3568 2.43675 25.5697 2.99243 25.7511 3.35155C25.8704 3.58777 25.911 3.50975 25.9984 3.60082C26.1705 3.78026 26.1171 4.21374 26.1 4.26715C26.1005 4.2684 26.026 4.05204 26.0218 4.17872C25.9657 4.26471 26.099 4.26443 26.1 4.26715C26.0965 4.30405 26.1678 4.75405 26.1879 4.84233C26.2017 4.89025 26.2657 4.8548 26.2716 4.88028C26.3197 5.09327 26.3503 5.31012 26.3626 5.53016C26.3854 5.89215 26.3891 6.25543 26.3711 6.62163C26.3698 6.63156 26.2916 6.6166 26.2894 6.63996C26.2571 6.96653 26.3545 7.17564 26.4143 7.44499C26.4741 7.71428 26.4572 7.92785 26.3216 8.08727C26.3404 8.29046 26.2818 8.58198 26.2457 8.74974C26.2097 8.91749 26.3665 8.9409 26.3697 8.95566C26.4725 9.41603 26.3847 9.68217 26.3736 10.1598C26.3681 10.3869 26.3941 10.8373 26.4133 11.0831C26.4287 11.2775 26.3917 11.3945 26.417 11.5736C26.4204 11.5978 26.4919 11.5733 26.4947 11.5807C26.5821 11.7805 26.4058 11.6845 26.3747 11.7257C26.2616 11.8753 26.2009 11.9677 26.2559 12.2236C26.2684 12.2826 26.5236 12.4546 26.5394 12.5621C26.5592 12.702 26.4675 12.6492 26.4906 12.7957C26.4924 12.8082 26.5489 12.8056 26.547 12.896C26.539 13.3156 26.5086 13.7731 26.5167 14.2092C26.5176 14.2687 26.6077 14.1924 26.6105 14.2784C26.6237 14.6822 26.623 15.1249 26.5823 15.5183C26.5818 15.5225 26.5812 15.5265 26.5806 15.5302C26.566 15.6233 26.5068 15.5591 26.4886 15.5822C26.374 15.727 26.5285 15.9412 26.5285 15.9786C26.5371 16.8267 26.2164 17.4212 25.9028 18.2054C25.8893 18.2463 25.8679 18.6579 25.6458 18.7088C25.6305 18.7137 25.4143 18.754 25.4218 18.9285C25.4219 18.9396 25.5471 18.908 25.438 19.0424C25.3296 19.1754 25.1925 19.4295 24.9629 19.539C24.8893 19.5751 24.66 19.5842 24.5827 19.8241C24.5831 19.8386 24.4982 20.2888 24.2744 20.2055C24.2377 20.191 24.1324 20.013 23.9817 20.2503C23.9519 20.2959 24.0546 20.2832 23.96 20.3822C23.8129 20.535 23.5515 20.6248 23.3652 20.8213C23.3342 20.8558 23.2185 21.07 23.0324 21.0293C23.0037 21.0227 23.0186 20.9407 22.9416 20.9637C22.5772 21.0712 22.2064 21.229 21.8182 21.2515C21.6816 21.2586 21.73 21.1351 21.5891 21.1263C21.4483 21.1181 21.1742 21.1161 21.033 21.1736C20.8912 21.2315 21.0587 21.4082 20.8351 21.4281C20.8063 21.4304 20.7774 21.4323 20.7485 21.4339C20.7485 21.4339 20.7485 21.4339 20.7485 21.4339C19.9446 21.4856 19.1475 21.3842 18.3443 21.368C18.2216 21.3654 18.3234 21.4304 18.1425 21.4313C17.4755 21.4352 16.3241 21.4922 15.7454 21.3535C15.2817 21.2427 15.8652 21.161 15.5109 21.1156C15.3399 21.0941 15.1549 21.3021 15.1137 21.3085C14.7105 21.3737 14.4302 21.2805 14.0673 21.3073C13.9924 21.3128 14.0659 21.3972 14.0021 21.401C13.7842 21.4145 13.5553 21.376 13.3471 21.3819C13.2537 21.3847 13.2709 21.4487 13.185 21.4433C12.9793 21.4311 12.7975 21.4033 12.597 21.3426C12.5787 21.337 12.7019 21.2584 12.5498 21.2548C12.3036 21.249 11.9979 21.189 11.7147 21.2481C11.6306 21.2659 11.6273 21.4104 11.4466 21.3096C11.4087 21.2885 11.4571 21.1155 11.2466 21.2641C11.2112 21.2889 10.8577 21.4879 10.6841 21.3571C10.6384 21.3227 10.5215 21.1811 10.4205 21.2027C10.4068 21.2061 10.4617 21.2834 10.3779 21.2904C10.0827 21.3137 9.77334 21.3034 9.47007 21.3252C9.38909 21.3312 9.50971 21.411 9.38901 21.4173C9.05709 21.4346 8.64269 21.4109 8.31812 21.3837C8.19846 21.3736 8.28117 21.3096 8.27247 21.3025C8.13245 21.187 8.04966 21.3408 8.00319 21.3493C7.71417 21.4006 7.49408 21.3264 7.22767 21.3432C7.15415 21.3475 7.20628 21.4209 7.19164 21.4272C7.03986 21.4892 7.15293 21.3595 7.05685 21.3442C6.7877 21.301 6.48766 21.3043 6.21548 21.311C6.1155 21.3135 6.22787 21.3982 6.13815 21.3994C6.00924 21.4015 5.8791 21.4023 5.74851 21.4016C5.2711 21.3998 4.78772 21.3216 4.35373 21.1744C4.24627 21.1373 4.33091 21.0944 4.31174 21.0745C4.18296 20.9375 3.923 20.9952 3.86557 20.9876C3.61165 20.9582 3.54135 20.8681 3.33851 20.7857C2.32931 20.3909 1.34038 19.4192 0.861924 18.5368C0.293216 17.5189 0.116129 16.5733 0.118489 15.5302C0.120056 15.4136 0.120958 15.2953 0.121095 15.1744C0.121256 15.1052 0.0461931 15.175 0.0454587 15.1154C0.039867 14.346 0.0803425 13.5886 0.0730963 12.8177C0.0726802 12.7544 0.00460558 12.8456 0.00184611 12.7441C-0.00425019 12.5358 0.00469133 12.272 0.029556 12.0614C0.0415154 11.9587 0.0948181 12.0965 0.105582 11.9931C0.130673 11.7524 0.139423 11.4943 0.133526 11.2471C0.13093 11.1418 0.0629124 11.3006 0.064789 11.1638C0.0759531 10.2322 0.0868927 9.31719 0.182833 8.37572C0.189484 8.31118 0.31103 8.25455 0.29005 8.11732C0.256933 8.10698 0.217789 8.10754 0.182315 8.10303C0.187306 7.24251 0.21761 6.38757 0.246561 5.53016C0.263195 4.98682 0.359367 4.44754 0.530227 3.9323C0.550221 3.87284 0.463967 3.96024 0.503455 3.84421C0.734868 3.17645 1.07725 2.56038 1.58423 2.05264C1.63504 2.00293 1.67435 2.08353 1.80446 1.92502C1.82604 1.89566 2.03802 1.67051 2.0875 1.6055C2.09393 1.59625 2.02465 1.60577 2.09953 1.53815C2.53584 1.14655 3.07137 0.826803 3.6158 0.628036C3.70377 0.59612 3.62626 0.667348 3.68873 0.645178C4.12816 0.487736 4.61978 0.341052 5.06523 0.324352C5.36291 0.315616 5.25855 0.384272 5.41646 0.429257C5.43898 0.435046 5.61676 0.430332 5.62666 0.462661C5.65134 0.541904 5.57029 0.632368 5.60691 0.716651C5.61263 0.730161 5.74836 0.717557 5.74851 0.733653C5.74851 0.733656 5.74851 0.73366 5.74851 0.733663C5.74851 0.738298 5.73664 0.745127 5.70647 0.755986C5.69691 0.758539 5.5356 0.780567 5.49736 0.799555C5.4704 0.812227 5.52149 0.840929 5.46653 0.859054C5.41195 0.877506 5.34894 0.855667 5.25933 0.883549C5.16993 0.912839 5.2135 0.942914 5.03639 0.979356ZM26.0834 9.50508C26.0081 9.66041 26.2861 9.68333 26.2187 9.51533C26.2151 9.50719 26.0871 9.49707 26.0834 9.50508ZM13.7841 0.342653C13.9871 0.420453 14.1261 0.302416 13.9828 0.242384C13.8396 0.183149 13.7222 0.319435 13.7841 0.342653ZM11.6783 0.411844C11.9156 0.467774 11.953 0.233935 11.6988 0.284144C11.684 0.287 11.6644 0.408651 11.6783 0.411844ZM4.71474 0.53409C4.71719 0.534863 4.8431 0.513161 4.84598 0.511455C4.90676 0.461673 4.65265 0.504392 4.71474 0.53409ZM9.58871 0.475232C9.6628 0.503091 9.87613 0.469993 9.78407 0.435101C9.70996 0.407344 9.49644 0.440969 9.58871 0.475232ZM25.362 17.5658C25.3571 17.5664 25.3161 17.6473 25.3393 17.656C25.4149 17.6844 25.4467 17.5575 25.362 17.5658ZM6.0372 0.488773C6.56192 0.491529 6.88007 0.635989 6.30865 0.616009C6.20517 0.61275 6.53167 0.57308 6.39996 0.560029C6.15897 0.537493 5.99895 0.62116 5.75302 0.575253C5.7085 0.567434 6.00727 0.488707 6.03814 0.488583C6.03783 0.488646 6.03751 0.48871 6.0372 0.488773ZM25.7502 9.59453C25.7466 9.59763 25.7431 9.72229 25.7467 9.72528C25.8351 9.79279 25.8419 9.54165 25.7502 9.59453ZM21.2548 20.3611C21.2476 20.3553 20.967 20.368 20.9584 20.3741C20.8144 20.54 21.3997 20.5151 21.2548 20.3611ZM23.8726 1.8552C23.7226 1.82865 23.599 1.74309 23.5705 1.60315C23.6732 1.68402 23.7761 1.76616 23.8726 1.8552Z" fill="black"/>
<defs>
<linearGradient id="paint0_linear_1_43" x1="13.2485" y1="0.530159" x2="13.2485" y2="20.5302" gradientUnits="userSpaceOnUse">
<stop offset="0.5" stop-color="white"/>
<stop offset="0.5" stop-color="#DC143C"/>
</linearGradient>
</defs>
</svg>
