<svg width="6" height="5" viewBox="0 0 6 5" fill="none" xmlns="http://www.w3.org/2000/svg">
<path d="M0.187134 1.13254C0.187134 0.580253 0.634849 0.132538 1.18713 0.132538H4.18713C4.73942 0.132538 5.18713 0.580253 5.18713 1.13254V3.13254C5.18713 3.68482 4.73942 4.13254 4.18713 4.13254H1.18713C0.634849 4.13254 0.187134 3.68482 0.187134 3.13254V1.13254Z" fill="url(#paint0_linear_1_43)"/>
<path d="M1.04773 0.241871C0.967083 0.25952 0.865531 0.293516 0.79241 0.329291C0.769472 0.34042 0.778075 0.328895 0.762135 0.336645C0.730957 0.352099 0.705506 0.372433 0.676416 0.390433C0.666729 0.39643 0.672563 0.379923 0.662453 0.386462C0.607022 0.422685 0.562412 0.467419 0.516962 0.516175C0.36171 0.6821 0.274755 0.905444 0.27609 1.13254C0.276321 1.24455 0.276572 1.35709 0.276574 1.47064C0.276717 1.59118 0.266194 1.73771 0.273468 1.86222C0.274344 1.87676 0.286737 1.86809 0.287809 1.87086C0.304362 1.91423 0.278789 1.89981 0.275788 1.92813C0.263978 2.04053 0.263895 2.16551 0.27033 2.27368C0.273104 2.3197 0.299041 2.27356 0.284778 2.3199C0.283808 2.32311 0.269453 2.31144 0.268081 2.32406C0.264984 2.35268 0.268126 2.40698 0.26723 2.42916C0.265409 2.47191 0.265618 2.47898 0.265872 2.51941C0.266114 2.57469 0.259374 2.64043 0.263292 2.69974C0.264185 2.7124 0.279334 2.69564 0.282178 2.71583C0.285023 2.73603 0.284364 2.78949 0.2809 2.80751C0.277439 2.82554 0.26513 2.81786 0.262361 2.82105C0.238882 2.8473 0.272263 2.90913 0.273236 2.91708C0.281306 2.99301 0.280415 3.06328 0.277737 3.13254C0.275342 3.18997 0.276648 3.24741 0.288353 3.30568C0.306778 3.39878 0.349149 3.49145 0.392294 3.56914C0.443688 3.66164 0.494464 3.73908 0.572837 3.80797C0.581113 3.81512 0.585301 3.7915 0.595318 3.79999C0.702153 3.88962 0.823731 3.95624 0.9554 4.00492C0.968728 4.00979 0.946276 4.02336 0.959516 4.02933C1.02058 4.05757 1.11991 4.09405 1.18713 4.06708C1.20906 4.05902 1.22771 4.0461 1.24108 4.02643C1.30559 4.02926 1.38389 4.03211 1.4416 4.04872C1.4788 4.05942 1.44267 4.08055 1.48837 4.07144C1.49868 4.0694 1.48527 4.05106 1.50073 4.04938C1.56581 4.04233 1.63692 4.04803 1.70131 4.03814C1.7144 4.03608 1.71083 4.01942 1.71454 4.01639C1.74572 3.99185 1.79764 4.03184 1.80895 4.03475C1.89513 4.05628 1.95807 4.04747 2.03835 4.04769C2.05698 4.04776 2.03496 4.0251 2.05289 4.02433C2.14586 4.02065 2.24218 4.02215 2.33322 4.03203C2.35347 4.03429 2.33485 4.05395 2.34452 4.05604C2.38719 4.06502 2.39665 4.02791 2.43757 4.03578C2.4462 4.0374 2.44134 4.05425 2.44291 4.0561C2.46754 4.08509 2.48894 4.04387 2.49528 4.04293C2.57541 4.03022 2.62664 4.07325 2.70405 4.06701C2.71331 4.06621 2.69243 4.04478 2.71846 4.04384C2.8919 4.03747 3.07534 4.04294 3.24701 4.06013C3.2737 4.06277 3.25465 4.07914 3.25633 4.08115C3.28371 4.11262 3.30142 4.07041 3.31012 4.0688C3.37879 4.05726 3.44293 4.0927 3.48958 4.04223C3.72291 4.05602 3.95538 4.0404 4.18713 4.05715C4.18713 4.05715 4.18713 4.05715 4.18713 4.05715C4.24007 4.06128 4.29346 4.06295 4.34796 4.06271C4.35149 4.06263 4.34883 4.08435 4.35595 4.08408C4.4418 4.07913 4.4199 4.04942 4.45916 3.9967C4.46842 3.98363 4.52296 4.01505 4.52822 4.01657C4.54573 4.02367 4.54372 4.05785 4.54898 4.0585C4.59348 4.0617 4.54781 3.96978 4.59125 3.94892C4.59273 3.94839 4.59526 3.96825 4.59985 3.96808C4.61426 3.96755 4.62229 3.95489 4.63664 3.95446C4.6692 3.95352 4.70576 3.9905 4.72921 3.9402C4.7318 3.9337 4.69272 3.8907 4.72963 3.86742C4.74496 3.8586 4.80385 3.80822 4.82162 3.79519C4.83992 3.78274 4.84228 3.80651 4.84393 3.80605C4.90424 3.78059 4.89537 3.8038 4.94413 3.80485C4.99323 3.80416 4.92107 3.75428 4.92156 3.73864C4.92213 3.72323 4.96535 3.70042 4.97756 3.69502C4.98984 3.68996 4.99139 3.70831 5.0005 3.70236C5.06028 3.66086 4.981 3.65417 4.98099 3.629C4.97877 3.57104 5.0527 3.56861 5.07825 3.52709C5.08493 3.51612 5.0674 3.51976 5.07058 3.50894C5.0827 3.46662 5.11103 3.44752 5.10762 3.39388C5.10728 3.38462 5.07995 3.33778 5.11234 3.31843C5.11703 3.31558 5.13063 3.32915 5.13771 3.31122C5.1485 3.28443 5.15871 3.23334 5.1553 3.20244C5.15286 3.17966 5.12529 3.20368 5.1349 3.1763C5.13905 3.16405 5.15337 3.18792 5.15981 3.16446C5.16184 3.15691 5.16325 3.14545 5.16396 3.13254C5.16547 3.10486 5.16507 3.07106 5.16472 3.055C5.1642 3.03136 5.14448 3.0443 5.14315 3.04239C5.13555 3.03083 5.12615 2.98546 5.12618 2.98145C5.1243 2.77924 5.1574 2.59276 5.14691 2.39588C5.14613 2.38043 5.12584 2.39072 5.12551 2.38836C5.11717 2.33547 5.17092 2.37717 5.18893 2.34022C5.14789 2.34556 5.15535 2.32375 5.15092 2.28649C5.14876 2.26854 5.1329 2.27832 5.13128 2.27668C5.10732 2.25005 5.13842 2.23151 5.14476 2.22674C5.16811 2.2091 5.14061 2.18991 5.15619 2.17791C5.17164 2.16592 5.19452 2.19352 5.19422 2.15779C5.17967 2.14777 5.14158 2.1743 5.13548 2.14717C5.11253 2.0448 5.14285 1.85373 5.14597 1.77142C5.1492 1.68928 5.14665 1.66275 5.15187 1.61489C5.16126 1.52843 5.13389 1.56012 5.12167 1.50643C5.10951 1.45259 5.17608 1.47877 5.19044 1.47103C5.20476 1.46343 5.19002 1.45513 5.19788 1.44568C5.20573 1.43627 5.21549 1.45666 5.2184 1.4345C5.22127 1.41234 5.19582 1.35173 5.18101 1.34388C5.14956 1.32726 5.11646 1.35457 5.1283 1.29592C5.129 1.29255 5.14629 1.3035 5.14808 1.29058C5.15498 1.23857 5.15861 1.18554 5.16206 1.13254C5.16542 1.08212 5.16475 1.03154 5.16284 0.981455C5.16227 0.967394 5.18279 0.976827 5.18262 0.968497C5.17869 0.881513 5.15271 0.917351 5.10833 0.882515C5.15551 0.88065 5.1782 0.847777 5.15591 0.78421C5.14204 0.746508 5.12551 0.760257 5.10288 0.742556C5.09616 0.737339 5.09731 0.706582 5.08657 0.706106C5.05164 0.704923 5.0327 0.741879 5.01579 0.679847C5.01502 0.67707 5.03397 0.676913 5.03019 0.667865C5.00457 0.609552 4.9736 0.61978 4.93207 0.568783C4.89978 0.528865 4.85101 0.447265 4.80608 0.405898C4.83977 0.36921 4.78523 0.339377 4.74664 0.353724C4.71557 0.329389 4.67875 0.308304 4.64751 0.285911C4.63673 0.278236 4.6509 0.270053 4.65017 0.26793C4.63824 0.234653 4.60754 0.255867 4.59955 0.253424C4.51141 0.225434 4.44437 0.179684 4.35264 0.186396C4.3493 0.186712 4.33937 0.217457 4.32004 0.190756C4.31864 0.188963 4.34971 0.178522 4.30864 0.171641C4.27987 0.166991 4.23345 0.154299 4.18713 0.154249C4.16682 0.154159 4.14681 0.155649 4.12876 0.159975C4.11429 0.163474 4.07769 0.188547 4.04832 0.168657C4.0444 0.165966 4.04868 0.157078 4.04304 0.15211C4.02477 0.136329 4.0148 0.16753 3.99334 0.140993C3.97188 0.114445 3.92723 0.09514 3.86693 0.113318C3.86501 0.113856 3.85074 0.1381 3.83178 0.137682C3.8015 0.137019 3.75853 0.132021 3.72692 0.132188C3.71179 0.132272 3.72148 0.147007 3.71885 0.147276C3.61709 0.155234 3.54467 0.141972 3.43566 0.136514C3.41568 0.135543 3.35825 0.154394 3.31956 0.139375C3.27708 0.123099 3.32074 0.055317 3.2231 0.0724085C3.18372 0.0795331 3.13386 0.162813 3.06309 0.119923C2.92583 0.130468 2.79889 0.109949 2.66125 0.124432C2.65506 0.125083 2.63549 0.146158 2.62094 0.145798C2.59934 0.145259 2.58748 0.135499 2.57205 0.134862C2.50742 0.131963 2.44827 0.140058 2.38595 0.138676C2.36229 0.138191 2.37057 0.128633 2.34235 0.128135C2.31415 0.127679 2.29534 0.140027 2.25712 0.134049C2.22826 0.129473 2.1994 0.104817 2.16109 0.102339C2.15963 0.126457 2.13332 0.126038 2.08655 0.132302C2.07756 0.133509 2.0872 0.141731 2.08295 0.14272C2.06564 0.146886 2.04963 0.140079 2.03319 0.144589C2.0292 0.145668 2.02901 0.153608 2.02574 0.154926C1.99795 0.166356 1.95217 0.148344 1.9443 0.145359C1.91417 0.13377 1.90009 0.143779 1.87697 0.139236C1.85389 0.134767 1.8884 0.129207 1.86144 0.126542C1.80556 0.121101 1.73377 0.122617 1.67702 0.122445C1.65437 0.122432 1.66982 0.131891 1.66658 0.132112C1.61976 0.134432 1.57241 0.124757 1.54645 0.142928C1.51398 0.0960224 1.51821 0.147453 1.45129 0.13789C1.44601 0.137117 1.43931 0.115726 1.45955 0.112406C1.47979 0.109059 1.51048 0.115697 1.53856 0.110445C1.54521 0.109274 1.5833 0.0878497 1.5885 0.0864187C1.62921 0.075638 1.63498 0.109757 1.63714 0.111658C1.66157 0.131929 1.70812 0.108405 1.72037 0.106531C1.77646 0.0984652 1.8241 0.103032 1.87101 0.0969752C1.90168 0.0930409 1.90469 0.0685713 1.92878 0.0688562C2.00885 0.0696051 2.03681 0.10507 2.11227 0.0729357C2.12845 0.0660345 2.11237 0.0378419 2.17035 0.0591119C2.17399 0.0603892 2.21703 0.0805492 2.2419 0.0669201C2.24503 0.0651918 2.24493 0.0566701 2.24905 0.0558726C2.27666 0.0506746 2.29507 0.0571655 2.32514 0.0532884C2.35521 0.049401 2.39137 0.0435962 2.42571 0.0458991C2.4464 0.0472486 2.47295 0.0635078 2.48285 0.0675052C2.51082 0.0790239 2.54081 0.0589496 2.55814 0.073275C2.57561 0.0878154 2.54145 0.110315 2.58727 0.119679C2.58897 0.0956583 2.59287 0.0709473 2.5956 0.046691C2.69601 0.0455626 2.79481 0.0519057 2.89556 0.0491651C2.90805 0.0487881 2.89527 0.0352236 2.90866 0.0344325C2.96516 0.0310898 3.0145 0.0401938 3.07309 0.0351305C3.11843 0.0311563 3.16816 0.0148743 3.21558 0.00989577C3.24455 0.0404443 3.31491 0.0287312 3.36603 0.0306919C3.38393 0.0313918 3.38274 0.0399746 3.39547 0.0425816C3.44351 0.0522597 3.421 0.0240787 3.43417 0.0193471C3.49067 -0.00105878 3.49551 0.0640202 3.56213 0.061788C3.56566 0.0617419 3.6088 0.025807 3.61474 0.0234339C3.6525 0.00834802 3.62099 0.0356945 3.64462 0.0379731C3.68776 0.0421357 3.71774 0.0504378 3.76836 0.0391294C3.78311 0.0358218 3.81852 0.0124295 3.84718 0.0296707C3.85095 0.0319353 3.84887 0.0441167 3.8519 0.0447897C3.90684 0.0560344 3.90828 0.0176165 3.93967 0.00393327C3.97107 -0.00979188 4.01956 0.0161856 4.02943 0.0238929C4.05525 0.0437004 4.00965 0.032768 4.00825 0.0347659C3.99183 0.0584187 4.02719 0.0539826 4.05422 0.0556976C4.05813 0.0941644 4.09592 0.0916786 4.08223 0.0573288C4.08067 0.0535856 4.05964 0.0574039 4.05422 0.0556976C4.07794 0.0176995 4.11947 0.0118321 4.16534 0.0471335C4.17853 0.0573123 4.17596 0.0687323 4.18713 0.0742352C4.1946 0.0777301 4.2077 0.0787578 4.23426 0.0769041C4.26565 0.0750572 4.25525 0.0472393 4.28431 0.0417879C4.35187 0.0294186 4.43238 0.0695794 4.49723 0.0844373C4.52111 0.0898193 4.50266 0.0684538 4.51932 0.0717596C4.564 0.0808882 4.59711 0.105335 4.64087 0.117769C4.64488 0.118909 4.64225 0.0999927 4.65542 0.10553C4.75534 0.148128 4.83101 0.206968 4.91704 0.278665C4.95904 0.312737 5.03495 0.375505 5.06911 0.421293C5.13075 0.499336 5.1704 0.615038 5.2085 0.687722C5.23362 0.735635 5.2449 0.718542 5.26489 0.736459C5.30428 0.772001 5.28635 0.863217 5.28165 0.874242C5.2817 0.874493 5.26566 0.830482 5.26324 0.85677C5.24841 0.875147 5.28141 0.873674 5.28165 0.874242C5.28019 0.881985 5.29417 0.97402 5.29894 0.991975C5.30211 1.00173 5.31827 0.994109 5.3196 0.999317C5.3305 1.04287 5.33758 1.08735 5.34066 1.13254C5.34637 1.20494 5.34729 1.27759 5.34279 1.35083C5.34246 1.35282 5.32291 1.34983 5.32237 1.3545C5.31427 1.41981 5.33862 1.46163 5.35358 1.5155C5.36852 1.56936 5.36431 1.61208 5.33041 1.64396C5.3351 1.6846 5.32046 1.7429 5.31144 1.77645C5.30243 1.81 5.34162 1.81469 5.34243 1.81764C5.36812 1.90971 5.34619 1.96294 5.3434 2.05846C5.34203 2.10388 5.34853 2.19396 5.35332 2.24314C5.35718 2.282 5.34794 2.30541 5.35425 2.34122C5.3551 2.34606 5.37299 2.34117 5.37369 2.34265C5.39552 2.38261 5.35147 2.3634 5.34369 2.37165C5.3154 2.40157 5.30023 2.42005 5.31398 2.47123C5.3171 2.48303 5.38092 2.51742 5.38485 2.53893C5.38982 2.56691 5.36688 2.55635 5.37265 2.58565C5.37312 2.58815 5.38723 2.58763 5.38675 2.60571C5.38475 2.68963 5.37716 2.78113 5.37918 2.86834C5.3794 2.88025 5.40192 2.86498 5.40263 2.88219C5.40593 2.96295 5.40576 3.05148 5.39557 3.13016C5.39546 3.13101 5.39532 3.1318 5.39515 3.13254C5.39153 3.15181 5.3767 3.1385 5.37216 3.14328C5.34352 3.173 5.38274 3.21744 5.38287 3.22527C5.38818 3.40146 5.31561 3.52288 5.25376 3.68617C5.2512 3.69459 5.25337 3.78405 5.20171 3.79111C5.19813 3.79194 5.14781 3.79633 5.15323 3.8351C5.15348 3.83759 5.18228 3.83307 5.15937 3.86074C5.13668 3.88806 5.10996 3.94239 5.05959 3.96244C5.04341 3.96915 4.99135 3.96595 4.97918 4.01953C4.97969 4.02267 4.96974 4.12565 4.9181 4.10174C4.90963 4.09764 4.88246 4.05352 4.85416 4.10629C4.84852 4.11646 4.87091 4.1155 4.85204 4.13704C4.82258 4.17034 4.76732 4.18682 4.73048 4.23116C4.72443 4.23892 4.70275 4.28901 4.6622 4.27638C4.65598 4.27435 4.65791 4.25457 4.64183 4.25902C4.56576 4.2798 4.48942 4.31446 4.40856 4.3171C4.38016 4.31784 4.38931 4.28745 4.3601 4.28431C4.3309 4.2813 4.27457 4.27959 4.24564 4.29372C4.21654 4.30792 4.25147 4.3523 4.20511 4.35706C4.19913 4.35761 4.19314 4.35808 4.18713 4.35847C4.18713 4.35847 4.18713 4.35847 4.18713 4.35847C4.02635 4.3714 3.86694 4.34605 3.7063 4.34199C3.68175 4.34136 3.7021 4.3576 3.66593 4.35783C3.53254 4.35879 3.30225 4.37305 3.18651 4.33838C3.09377 4.31067 3.21048 4.29026 3.13961 4.2789C3.10542 4.27351 3.06842 4.32552 3.06017 4.32712C2.97952 4.34342 2.92348 4.32011 2.8509 4.32682C2.83591 4.32821 2.85061 4.3493 2.83785 4.35024C2.79428 4.35363 2.74848 4.344 2.70685 4.34546C2.68817 4.34616 2.69161 4.36217 2.67442 4.36082C2.6333 4.35778 2.59693 4.35082 2.55684 4.33564C2.55318 4.33426 2.57782 4.3146 2.54739 4.31369C2.49815 4.31225 2.43702 4.29726 2.38036 4.31203C2.36355 4.31647 2.36289 4.35259 2.32676 4.32739C2.31918 4.32212 2.32885 4.27888 2.28675 4.31602C2.27967 4.32223 2.20896 4.37198 2.17426 4.33927C2.16511 4.33066 2.14174 4.29526 2.12152 4.30067C2.11878 4.30153 2.12977 4.32085 2.11301 4.3226C2.05397 4.32841 1.9921 4.32585 1.93145 4.3313C1.91525 4.33279 1.93937 4.35276 1.91523 4.35432C1.84885 4.35865 1.76597 4.35273 1.70106 4.34593C1.67712 4.34339 1.69367 4.32739 1.69193 4.32561C1.66392 4.29674 1.64736 4.33519 1.63807 4.33732C1.58027 4.35014 1.53625 4.3316 1.48297 4.33579C1.46826 4.33689 1.47869 4.35522 1.47576 4.35681C1.4454 4.37229 1.46802 4.33988 1.4488 4.33606C1.39497 4.32526 1.33497 4.32609 1.28053 4.32775C1.26053 4.32838 1.28301 4.34954 1.26506 4.34985C1.23928 4.35038 1.21325 4.35058 1.18713 4.35039C1.08818 4.34992 0.987911 4.33293 0.898454 4.30084C0.876309 4.29277 0.8945 4.28129 0.890692 4.27656C0.865318 4.24401 0.810095 4.26159 0.797963 4.26049C0.744613 4.25674 0.730897 4.23581 0.688847 4.21912C0.479247 4.139 0.275843 3.93597 0.178458 3.7532C0.0624594 3.54214 0.0285993 3.34681 0.0296292 3.13254C0.0300209 3.10924 0.0302465 3.08556 0.0302808 3.06138C0.0303209 3.04755 0.0115552 3.0615 0.0113716 3.04958C0.00997365 2.89571 0.0200925 2.74422 0.018281 2.59004C0.018177 2.57739 0.00115831 2.59563 0.00046844 2.57532C-0.00105564 2.53367 0.00117975 2.4809 0.00739591 2.43879C0.0103858 2.41825 0.0237114 2.4458 0.0264023 2.42512C0.0326752 2.37698 0.0348627 2.32537 0.0333884 2.27592C0.0327395 2.25487 0.015735 2.28662 0.0162042 2.25927C0.0189952 2.07294 0.0217301 1.88994 0.0457152 1.70165C0.0473779 1.68874 0.0777643 1.67742 0.0725194 1.64997C0.0642401 1.6479 0.0544541 1.64801 0.0455856 1.64711C0.0468334 1.47501 0.0544094 1.30402 0.0616471 1.13254C0.0658121 1.02143 0.086229 0.91134 0.12167 0.806295C0.12582 0.794166 0.10574 0.811285 0.11394 0.787581C0.161927 0.651208 0.23226 0.525086 0.337965 0.423398C0.348546 0.413448 0.359552 0.432406 0.385653 0.399923C0.389977 0.393902 0.43286 0.347971 0.44241 0.334187C0.443643 0.332218 0.428266 0.332808 0.443557 0.319067C0.532674 0.239505 0.642432 0.175256 0.753709 0.136313C0.771685 0.130063 0.756588 0.146035 0.769342 0.141714C0.858916 0.111011 0.958404 0.0805312 1.04887 0.078986C1.10924 0.0784352 1.08838 0.0949543 1.12037 0.106793C1.12492 0.108349 1.16067 0.107536 1.16268 0.115592C1.16769 0.135434 1.15166 0.157936 1.15908 0.179055C1.16023 0.182465 1.18711 0.17941 1.18713 0.183412C1.18713 0.183412 1.18713 0.183413 1.18713 0.183413C1.18714 0.184571 1.18478 0.186283 1.17882 0.188985C1.17693 0.189652 1.14508 0.194944 1.13759 0.199542C1.13231 0.202631 1.14245 0.209953 1.13169 0.214316C1.12102 0.218748 1.10852 0.213065 1.09099 0.219533C1.07354 0.226295 1.08231 0.234177 1.04773 0.241871ZM5.27085 1.92752C5.25204 1.95859 5.32153 1.96317 5.30469 1.92957C5.30379 1.92794 5.27178 1.92592 5.27085 1.92752ZM2.79424 0.0856613C2.83486 0.105111 2.86265 0.075602 2.834 0.060594C2.80535 0.0457852 2.78187 0.0798569 2.79424 0.0856613ZM2.37309 0.102959C2.42056 0.116942 2.42803 0.0584817 2.37719 0.071034C2.37424 0.0717479 2.37032 0.102161 2.37309 0.102959ZM0.979363 0.128383C0.979872 0.128616 1.0052 0.124374 1.00576 0.123956C1.01768 0.112136 0.966463 0.120466 0.979363 0.128383ZM1.95518 0.118806C1.96999 0.125771 2.01266 0.117496 1.99425 0.108773C1.97943 0.101834 1.93672 0.11024 1.95518 0.118806ZM5.11173 3.5405C5.11055 3.54054 5.10216 3.55665 5.10792 3.55893C5.12668 3.5663 5.13207 3.54029 5.11173 3.5405ZM1.24487 0.122191C1.34982 0.12288 1.41344 0.158995 1.29916 0.154C1.27847 0.153186 1.34377 0.143268 1.31742 0.140005C1.26923 0.134371 1.23722 0.155288 1.18804 0.143811C1.17913 0.141857 1.23889 0.122175 1.24506 0.122144C1.245 0.12216 1.24493 0.122175 1.24487 0.122191ZM5.18757 1.94541C5.18665 1.94603 5.18578 1.97096 5.18669 1.97156C5.20877 1.98506 5.21048 1.93484 5.18757 1.94541ZM4.28766 4.09161C4.28618 4.09003 4.23047 4.09213 4.2288 4.09376C4.20031 4.1347 4.31749 4.13052 4.28766 4.09161ZM4.80622 0.404276C4.77389 0.402061 4.74944 0.385651 4.74672 0.353814C4.76692 0.370087 4.78727 0.38642 4.80622 0.404276Z" fill="black"/>
<defs>
<linearGradient id="paint0_linear_1_43" x1="2.68713" y1="0.132538" x2="2.68713" y2="4.13254" gradientUnits="userSpaceOnUse">
<stop offset="0.5" stop-color="white"/>
<stop offset="0.5" stop-color="#DC143C"/>
</linearGradient>
</defs>
</svg>
